<svg width="24" height="24" viewBox="0 0 24 24" fill="none" xmlns="http://www.w3.org/2000/svg">
<path d="M10.615 4.82989C11.1274 3.59796 12.8726 3.59795 13.385 4.82989L14.4254 7.33145C14.6414 7.85081 15.1299 8.20566 15.6905 8.25061L18.3912 8.46712C19.7212 8.57374 20.2605 10.2335 19.2472 11.1015L17.1896 12.8641C16.7624 13.23 16.5758 13.8042 16.7063 14.3513L17.335 16.9867C17.6445 18.2845 16.2327 19.3103 15.094 18.6148L12.7819 17.2026C12.3019 16.9094 11.6981 16.9094 11.2181 17.2026L8.90599 18.6148C7.76734 19.3103 6.35546 18.2845 6.66504 16.9867L7.29368 14.3513C7.42419 13.8042 7.23763 13.23 6.81045 12.8641L4.75284 11.1015C3.73954 10.2335 4.27882 8.57374 5.60881 8.46712L8.30945 8.25061C8.87013 8.20566 9.35855 7.85081 9.57456 7.33145L10.615 4.82989Z" stroke="white" stroke-width="1.5"/>
</svg>
