<svg width="50" height="36" viewBox="0 0 50 36" fill="none" xmlns="http://www.w3.org/2000/svg">
<path d="M24.4178 20.6539L25.7827 23.1149M22.4451 22.2637L23.3296 23.8034M27.5453 23.6759C27.1476 23.8449 26.3872 24.1605 25.7763 23.1053M24.7677 24.3358C24.7677 24.3358 23.9373 24.9096 23.3328 23.8034M21.2488 12.0533H19.7524C18.0946 12.0533 16.7511 13.3979 16.7524 15.0557L16.7556 19.0076C16.756 19.5596 17.2036 20.0068 17.7556 20.0068H18.1372L20.4153 23.9246C20.9561 24.8395 21.8024 24.7916 22.1906 24.7088M31.0356 21.4381C30.8701 21.9099 29.7979 24.6737 28.4171 22.2542L26.4922 19.2322M31.0356 21.2883H31.2438C32.3508 21.2883 33.2472 20.3891 33.2438 19.2821L33.2306 15.0087C33.2269 13.8191 32.5206 12.744 31.4302 12.2683L30.8252 12.0044C29.6943 11.511 28.474 11.2554 27.2401 11.2535L24.9109 11.25C24.9109 11.25 23.9691 11.2628 23.0337 12.4422L20.9922 15.1081C20.5331 15.7076 20.414 16.5942 21.054 16.9951C21.5251 17.2901 22.1949 17.3951 23.0465 16.7425L24.7209 15.0403C25.0366 14.7194 25.2856 14.5396 25.7339 14.5795V14.5795C26.4769 14.6456 27.3439 15.0796 27.7251 15.7207L31.0356 21.2883Z" stroke="#595D62" stroke-linecap="round"/>
</svg>
