<svg width="50" height="36" viewBox="0 0 50 36" fill="none" xmlns="http://www.w3.org/2000/svg">
<rect width="50" height="36" rx="18" fill="#4E46B4" fill-opacity="0.12"/>
<path d="M19.1683 21.2528C19.3636 21.0575 19.3636 20.7409 19.1683 20.5457C18.9731 20.3504 18.6565 20.3504 18.4612 20.5457L19.1683 21.2528ZM17.1722 21.8346C16.977 22.0299 16.977 22.3465 17.1722 22.5418C17.3675 22.737 17.6841 22.737 17.8794 22.5418L17.1722 21.8346ZM20.4363 22.5208C20.6316 22.3255 20.6316 22.0089 20.4363 21.8137C20.2411 21.6184 19.9245 21.6184 19.7292 21.8137L20.4363 22.5208ZM16.7346 24.8083C16.5393 25.0036 16.5393 25.3201 16.7346 25.5154C16.9299 25.7107 17.2464 25.7107 17.4417 25.5154L16.7346 24.8083ZM21.7043 23.7888C21.8996 23.5935 21.8996 23.2769 21.7043 23.0817C21.5091 22.8864 21.1925 22.8864 20.9972 23.0817L21.7043 23.7888ZM19.6483 24.4306C19.453 24.6259 19.453 24.9424 19.6483 25.1377C19.8436 25.333 20.1601 25.333 20.3554 25.1377L19.6483 24.4306ZM27.0313 13.576V13.076V13.576ZM32.3791 9.87092L32.8638 9.74813C32.8185 9.56941 32.6785 9.43011 32.4996 9.38566L32.3791 9.87092ZM19.762 19.7211L19.321 19.4855C19.2173 19.6797 19.2528 19.919 19.4085 20.0747L19.762 19.7211ZM22.5348 22.494L22.1813 22.8475C22.3371 23.0033 22.5765 23.0388 22.7707 22.9348L22.5348 22.494ZM21.2525 15.2144C21.5266 15.1809 21.7217 14.9316 21.6882 14.6575C21.6547 14.3834 21.4054 14.1883 21.1313 14.2218L21.2525 15.2144ZM16 18.2883L15.585 18.0094C15.46 18.1953 15.474 18.4417 15.6192 18.6123C15.7644 18.7829 16.0053 18.8362 16.2089 18.7426L16 18.2883ZM18.888 18.6359C19.1595 18.6865 19.4206 18.5075 19.4712 18.236C19.5218 17.9645 19.3427 17.7035 19.0713 17.6529L18.888 18.6359ZM28.0343 21.1176C28.0672 20.8434 27.8716 20.5945 27.5974 20.5616C27.3232 20.5288 27.0743 20.7244 27.0414 20.9986L28.0343 21.1176ZM23.9707 26.25L23.5157 26.0426C23.423 26.2462 23.4767 26.4866 23.6473 26.6313C23.818 26.776 24.064 26.7898 24.2496 26.665L23.9707 26.25ZM24.6062 23.1793C24.556 22.9078 24.2951 22.7284 24.0236 22.7787C23.7521 22.829 23.5727 23.0898 23.623 23.3614L24.6062 23.1793ZM18.4612 20.5457L17.1722 21.8346L17.8794 22.5418L19.1683 21.2528L18.4612 20.5457ZM19.7292 21.8137L16.7346 24.8083L17.4417 25.5154L20.4363 22.5208L19.7292 21.8137ZM20.9972 23.0817L19.6483 24.4306L20.3554 25.1377L21.7043 23.7888L20.9972 23.0817ZM27.0313 14.076C27.2573 14.076 27.4782 14.143 27.6661 14.2686L28.2217 13.4371C27.8694 13.2017 27.4551 13.076 27.0313 13.076V14.076ZM27.6661 14.2686C27.8541 14.3941 28.0005 14.5726 28.087 14.7814L29.0109 14.3987C28.8487 14.0072 28.5741 13.6725 28.2217 13.4371L27.6661 14.2686ZM28.087 14.7814C28.1735 14.9902 28.1961 15.22 28.152 15.4416L29.1328 15.6367C29.2155 15.2211 29.1731 14.7902 29.0109 14.3987L28.087 14.7814ZM28.152 15.4416C28.108 15.6633 27.9991 15.8669 27.8393 16.0267L28.5464 16.7338C28.8461 16.4342 29.0502 16.0524 29.1328 15.6367L28.152 15.4416ZM27.8393 16.0267C27.6795 16.1865 27.4759 16.2954 27.2542 16.3394L27.4493 17.3202C27.865 17.2376 28.2468 17.0335 28.5464 16.7338L27.8393 16.0267ZM27.2542 16.3394C27.0326 16.3835 26.8028 16.3609 26.594 16.2744L26.2113 17.1983C26.6029 17.3605 27.0337 17.4029 27.4493 17.3202L27.2542 16.3394ZM26.594 16.2744C26.3852 16.1879 26.2067 16.0415 26.0812 15.8536L25.2497 16.4091C25.4851 16.7615 25.8198 17.0361 26.2113 17.1983L26.594 16.2744ZM26.0812 15.8536C25.9556 15.6656 25.8886 15.4447 25.8886 15.2187H24.8886C24.8886 15.6425 25.0143 16.0568 25.2497 16.4091L26.0812 15.8536ZM25.8886 15.2187C25.8886 14.9156 26.009 14.625 26.2233 14.4107L25.5162 13.7036C25.1143 14.1054 24.8886 14.6504 24.8886 15.2187H25.8886ZM26.2233 14.4107C26.4376 14.1964 26.7282 14.076 27.0313 14.076V13.076C26.463 13.076 25.918 13.3017 25.5162 13.7036L26.2233 14.4107ZM27.8138 10.866L31.384 14.4361L32.0911 13.729L28.521 10.1589L27.8138 10.866ZM32.4996 9.38566C31.9469 9.24838 30.1392 8.95492 27.7096 10.1317C25.2852 11.3061 22.2957 13.9183 19.321 19.4855L20.203 19.9568C23.1098 14.5166 25.9642 12.0883 28.1456 11.0317C30.3219 9.97755 31.882 10.2626 32.2585 10.3562L32.4996 9.38566ZM19.4085 20.0747L22.1813 22.8475L22.8884 22.1404L20.1156 19.3676L19.4085 20.0747ZM22.7707 22.9348C28.3559 19.9467 30.9662 16.9479 32.1342 14.5209C33.3046 12.0888 33 10.2858 32.8638 9.74813L31.8944 9.99371C31.986 10.3553 32.2809 11.9097 31.2331 14.0872C30.1828 16.2698 27.7571 19.1329 22.299 22.0531L22.7707 22.9348ZM21.1313 14.2218C19.7011 14.3964 17.5115 15.1432 15.585 18.0094L16.415 18.5672C18.1636 15.9657 20.0807 15.3575 21.2525 15.2144L21.1313 14.2218ZM16 18.2883C16.2089 18.7426 16.2087 18.7426 16.2085 18.7427C16.2084 18.7428 16.2082 18.7429 16.2081 18.7429C16.2079 18.743 16.2076 18.7431 16.2074 18.7432C16.207 18.7434 16.2066 18.7436 16.2063 18.7437C16.2057 18.744 16.2054 18.7441 16.2053 18.7442C16.2052 18.7442 16.206 18.7439 16.2079 18.7431C16.2116 18.7415 16.2193 18.7383 16.231 18.7337C16.2545 18.7247 16.2938 18.7103 16.3484 18.6931C16.4577 18.6589 16.6283 18.6136 16.8563 18.5776C17.3114 18.5057 17.9988 18.4702 18.888 18.6359L19.0713 17.6529C18.063 17.4649 17.2606 17.5013 16.7003 17.5898C16.4205 17.634 16.202 17.691 16.0491 17.739C15.9726 17.763 15.9125 17.7847 15.8694 17.8014C15.8478 17.8098 15.8304 17.8169 15.8174 17.8225C15.8108 17.8252 15.8054 17.8276 15.801 17.8296C15.7988 17.8305 15.7969 17.8314 15.7952 17.8321C15.7944 17.8325 15.7937 17.8328 15.793 17.8332C15.7926 17.8333 15.7923 17.8335 15.792 17.8336C15.7918 17.8337 15.7916 17.8338 15.7915 17.8338C15.7913 17.8339 15.7911 17.834 16 18.2883ZM27.0414 20.9986C26.9012 22.1693 26.2934 24.0863 23.6918 25.835L24.2496 26.665C27.1157 24.7386 27.8629 22.5488 28.0343 21.1176L27.0414 20.9986ZM23.9707 26.25C24.4257 26.4574 24.4258 26.4572 24.4259 26.4569C24.4259 26.4569 24.426 26.4567 24.4261 26.4565C24.4262 26.4562 24.4264 26.4559 24.4265 26.4555C24.4268 26.4548 24.4272 26.4541 24.4275 26.4533C24.4283 26.4516 24.4291 26.4497 24.4301 26.4475C24.432 26.4432 24.4343 26.4377 24.4371 26.4312C24.4426 26.4181 24.4496 26.4008 24.4579 26.3792C24.4745 26.3361 24.4961 26.276 24.5199 26.1995C24.5675 26.0465 24.6242 25.8279 24.6681 25.5482C24.7561 24.988 24.7926 24.1859 24.6062 23.1793L23.623 23.3614C23.7873 24.2493 23.7519 24.937 23.6802 25.393C23.6444 25.6214 23.5993 25.7925 23.5651 25.9022C23.548 25.9571 23.5337 25.9965 23.5246 26.0201C23.5201 26.0319 23.5169 26.0397 23.5153 26.0435C23.5145 26.0454 23.5141 26.0463 23.5142 26.0461C23.5142 26.0461 23.5143 26.0457 23.5146 26.0451C23.5147 26.0449 23.5149 26.0445 23.5151 26.0441C23.5152 26.0439 23.5153 26.0436 23.5154 26.0434C23.5154 26.0433 23.5155 26.0431 23.5156 26.043C23.5157 26.0428 23.5157 26.0426 23.9707 26.25Z" fill="#4E46B4"/>
</svg>
