<svg width="16" height="16" viewBox="0 0 16 16" fill="none" xmlns="http://www.w3.org/2000/svg">
<mask id="mask0_30862_6065" style="mask-type:alpha" maskUnits="userSpaceOnUse" x="0" y="0" width="16" height="16">
<rect width="16" height="16" fill="#D9D9D9"/>
</mask>
<g mask="url(#mask0_30862_6065)">
<path d="M2.79998 13.6C2.46998 13.6 2.18748 13.4825 1.95248 13.2475C1.71748 13.0125 1.59998 12.73 1.59998 12.4V5.20001C1.59998 4.87001 1.71748 4.58751 1.95248 4.35251C2.18748 4.11751 2.46998 4.00001 2.79998 4.00001H5.59998V2.79647C5.59998 2.4655 5.71762 2.18334 5.95291 1.95001C6.1882 1.71667 6.47104 1.60001 6.80144 1.60001H9.20438C9.53478 1.60001 9.81664 1.71751 10.05 1.95251C10.2833 2.18751 10.4 2.47001 10.4 2.80001V4.00001H13.2C13.53 4.00001 13.8125 4.11751 14.0475 4.35251C14.2825 4.58751 14.4 4.87001 14.4 5.20001V12.4C14.4 12.73 14.2825 13.0125 14.0475 13.2475C13.8125 13.4825 13.53 13.6 13.2 13.6H2.79998ZM2.79998 12.4H13.2V5.20001H2.79998V12.4ZM6.79998 4.00001H9.19998V2.80001H6.79998V4.00001Z" fill="#595D62"/>
</g>
</svg>
