<svg width="11" height="11" viewBox="0 0 11 11" fill="none" xmlns="http://www.w3.org/2000/svg">
<path d="M0.46967 9.46967C0.176777 9.76256 0.176777 10.2374 0.46967 10.5303C0.762563 10.8232 1.23744 10.8232 1.53033 10.5303L0.46967 9.46967ZM10.2353 1.51472C10.2353 1.10051 9.89949 0.764719 9.48528 0.764719L2.73528 0.764719C2.32107 0.764719 1.98528 1.1005 1.98528 1.51472C1.98528 1.92893 2.32107 2.26472 2.73528 2.26472H8.73528V8.26472C8.73528 8.67893 9.07107 9.01472 9.48528 9.01472C9.8995 9.01472 10.2353 8.67893 10.2353 8.26472L10.2353 1.51472ZM1.53033 10.5303L10.0156 2.04505L8.95495 0.984389L0.46967 9.46967L1.53033 10.5303Z" fill="white"/>
</svg>
