<svg width="16" height="16" viewBox="0 0 16 16" fill="none" xmlns="http://www.w3.org/2000/svg">
<g clip-path="url(#clip0_1_1463)">
<path d="M10.7253 4.27467C10.4956 3.97831 10.183 3.75674 9.82733 3.638L8.90867 3.33933C8.83814 3.31423 8.7771 3.26791 8.73395 3.20674C8.69079 3.14556 8.66762 3.07253 8.66762 2.99767C8.66762 2.9228 8.69079 2.84977 8.73395 2.7886C8.7771 2.72742 8.83814 2.68111 8.90867 2.656L9.82733 2.35733C10.0992 2.2635 10.3461 2.10894 10.5493 1.9054C10.7525 1.70186 10.9066 1.45469 11 1.18267L11.0073 1.16L11.306 0.241999C11.3308 0.171009 11.3771 0.109493 11.4384 0.0659676C11.4998 0.0224425 11.5731 -0.000938416 11.6483 -0.000938416C11.7235 -0.000938416 11.7969 0.0224425 11.8582 0.0659676C11.9196 0.109493 11.9658 0.171009 11.9907 0.241999L12.2887 1.16C12.3816 1.43915 12.5384 1.69276 12.7466 1.90062C12.9548 2.10849 13.2087 2.26488 13.488 2.35733L14.406 2.656L14.4247 2.66067C14.4952 2.68577 14.5562 2.73209 14.5994 2.79326C14.6425 2.85444 14.6657 2.92747 14.6657 3.00233C14.6657 3.0772 14.6425 3.15023 14.5994 3.2114C14.5562 3.27258 14.4952 3.31889 14.4247 3.344L13.506 3.64267C13.2269 3.7354 12.9733 3.89189 12.7652 4.09972C12.5571 4.30756 12.4004 4.56102 12.3073 4.84L12.0087 5.758C11.9837 5.82876 11.9374 5.89003 11.8761 5.93337C11.8149 5.97671 11.7417 5.99999 11.6667 5.99999C11.5916 5.99999 11.5184 5.97671 11.4572 5.93337C11.3959 5.89003 11.3496 5.82876 11.3247 5.758L11.026 4.84C10.9588 4.63588 10.8574 4.4447 10.726 4.27467H10.7253ZM15.8553 6.80867L15.3447 6.64333C15.1896 6.59167 15.0488 6.50457 14.9333 6.38896C14.8178 6.27335 14.7308 6.13241 14.6793 5.97733L14.5127 5.468C14.4989 5.42862 14.4732 5.3945 14.4391 5.37037C14.4051 5.34623 14.3644 5.33326 14.3227 5.33326C14.2809 5.33326 14.2402 5.34623 14.2062 5.37037C14.1722 5.3945 14.1465 5.42862 14.1327 5.468L13.9673 5.97733C13.9168 6.13144 13.8313 6.27177 13.7175 6.38731C13.6037 6.50285 13.4647 6.59048 13.3113 6.64333L12.8013 6.80867C12.762 6.82247 12.7278 6.84817 12.7037 6.8822C12.6796 6.91624 12.6666 6.95694 12.6666 6.99867C12.6666 7.04039 12.6796 7.08109 12.7037 7.11513C12.7278 7.14917 12.762 7.17486 12.8013 7.18867L13.3113 7.35467C13.4668 7.4064 13.608 7.49374 13.7238 7.60971C13.8395 7.72569 13.9266 7.8671 13.978 8.02267L14.1433 8.532C14.1571 8.57138 14.1828 8.6055 14.2169 8.62963C14.2509 8.65377 14.2916 8.66674 14.3333 8.66674C14.3751 8.66674 14.4158 8.65377 14.4498 8.62963C14.4838 8.6055 14.5095 8.57138 14.5233 8.532L14.6893 8.02267C14.7409 7.86749 14.8279 7.72648 14.9435 7.61086C15.0591 7.49524 15.2002 7.4082 15.3553 7.35667L15.8653 7.19133C15.9047 7.17753 15.9388 7.15183 15.963 7.1178C15.9871 7.08376 16.0001 7.04306 16.0001 7.00133C16.0001 6.95961 15.9871 6.91891 15.963 6.88487C15.9388 6.85083 15.9047 6.82514 15.8653 6.81133L15.8553 6.80867ZM8 1.33333C8.638 1.33333 9.25533 1.42267 9.83933 1.59C9.76211 1.63807 9.67955 1.677 9.59333 1.706L8.7 1.99933C8.51209 2.06633 8.34594 2.18316 8.21933 2.33733C7.45726 2.30781 6.69708 2.43243 5.98431 2.70371C5.27155 2.97499 4.62088 3.38735 4.07128 3.91609C3.52169 4.44483 3.08448 5.07907 2.78584 5.78081C2.48721 6.48256 2.3333 7.23736 2.33333 8C2.33333 8.98 2.582 9.922 3.04867 10.758L3.14867 10.938L2.40733 13.594L5.06533 12.8527L5.24533 12.9527C6.03549 13.3921 6.91931 13.6361 7.823 13.6644C8.7267 13.6926 9.62403 13.5043 10.4401 13.1151C11.2562 12.7259 11.9673 12.1471 12.5141 11.4271C13.0609 10.707 13.4275 9.8666 13.5833 8.976C13.6433 9.06533 13.7187 9.14267 13.8067 9.206C13.9105 9.28026 14.0297 9.33045 14.1553 9.35293C14.281 9.37542 14.4102 9.36963 14.5333 9.336C13.9133 12.378 11.224 14.6667 8 14.6667C6.93599 14.6681 5.88721 14.4139 4.942 13.9253L2.39133 14.6367C2.24903 14.6764 2.09872 14.6775 1.95582 14.64C1.81291 14.6025 1.68254 14.5277 1.57807 14.4233C1.4736 14.3188 1.39878 14.1884 1.36129 14.0455C1.32379 13.9026 1.32495 13.7523 1.36467 13.61L2.07667 11.0613C1.5869 10.1153 1.33195 9.0653 1.33333 8C1.33333 4.318 4.318 1.33333 8 1.33333Z" fill="#595D62"/>
</g>
<defs>
<clipPath id="clip0_1_1463">
<rect width="16" height="16" fill="white"/>
</clipPath>
</defs>
</svg>
