<svg width="24" height="24" viewBox="0 0 24 24" fill="none" xmlns="http://www.w3.org/2000/svg">
<mask id="mask0_25_366" style="mask-type:alpha" maskUnits="userSpaceOnUse" x="0" y="0" width="24" height="24">
<rect width="24" height="24" fill="#D9D9D9"/>
</mask>
<g mask="url(#mask0_25_366)">
<path d="M5.3077 20.5C4.80257 20.5 4.375 20.325 4.025 19.975C3.675 19.625 3.5 19.1974 3.5 18.6923V5.30773C3.5 4.80259 3.675 4.37502 4.025 4.02502C4.375 3.67502 4.80257 3.50002 5.3077 3.50002H13.9635L12.4635 5H5.3077C5.23077 5 5.16024 5.03205 5.09612 5.09615C5.03202 5.16027 4.99997 5.23079 4.99997 5.30773V18.6923C4.99997 18.7692 5.03202 18.8397 5.09612 18.9039C5.16024 18.968 5.23077 19 5.3077 19H18.6923C18.7692 19 18.8397 18.968 18.9038 18.9039C18.9679 18.8397 19 18.7692 19 18.6923V11.473L20.5 9.97307V18.6923C20.5 19.1974 20.325 19.625 19.975 19.975C19.625 20.325 19.1974 20.5 18.6923 20.5H5.3077ZM9.5 14.5V11.0673L18.5596 2.00773C18.7147 1.85259 18.8852 1.73945 19.0711 1.6683C19.257 1.59715 19.4461 1.56157 19.6385 1.56157C19.8346 1.56157 20.023 1.59715 20.2038 1.6683C20.3846 1.73945 20.5493 1.84938 20.698 1.9981L21.9538 3.25002C22.0987 3.40514 22.2099 3.57629 22.2874 3.76347C22.365 3.95064 22.4038 4.14037 22.4038 4.33267C22.4038 4.52499 22.3708 4.71153 22.3048 4.8923C22.2387 5.07305 22.1281 5.24099 21.973 5.39612L12.8846 14.5H9.5ZM11 13H12.2461L18.4789 6.76727L17.8558 6.1442L17.1885 5.5019L11 11.6904V13Z" fill="#0578FB"/>
</g>
</svg>
