<svg width="24" height="24" viewBox="0 0 24 24" fill="none" xmlns="http://www.w3.org/2000/svg">
<path d="M4.875 9.49286C5.18311 7.95001 7.05743 6.27858 7.95608 5.63572C8.98311 5.37858 12.0385 5.01858 16.0439 5.63572C17.5845 6.25286 18.7399 8.46429 19.125 9.49286M4.875 9.49286C5.13176 11.55 6.8777 16.2814 11.8074 18.75M4.875 9.49286C7.95608 9.10715 12.5777 8.72142 19.125 9.49286M11.8074 18.75C13.7331 17.9786 17.8926 15.0471 19.125 9.49286M11.8074 18.75C9.65068 14.43 8.4696 10.5214 8.34122 9.10714L10.652 5.25M11.8074 18.75C13.9642 14.43 15.1453 10.5214 15.2737 9.10714L12.9628 5.25" stroke="white" stroke-width="1.5"/>
</svg>
