<svg width="25" height="24" viewBox="0 0 25 24" fill="none" xmlns="http://www.w3.org/2000/svg">
<path d="M10.1057 4.22687C9.74773 4.01843 9.28858 4.13963 9.08014 4.49758C8.8717 4.85553 8.99291 5.31468 9.35085 5.52311L10.1057 4.22687ZM12.5 6.48901L13.1249 6.90367C13.2391 6.73158 13.2773 6.52002 13.2304 6.31888C13.1836 6.11774 13.0559 5.94482 12.8774 5.84089L12.5 6.48901ZM10.212 8.58075C9.983 8.9259 10.0771 9.39135 10.4223 9.62036C10.7674 9.84937 11.2329 9.75522 11.4619 9.41007L10.212 8.58075ZM17.2969 7.58074C16.9896 7.30302 16.5153 7.32702 16.2376 7.63434C15.9599 7.94166 15.9839 8.41593 16.2912 8.69364L17.2969 7.58074ZM9.35085 5.52311L12.1226 7.13713L12.8774 5.84089L10.1057 4.22687L9.35085 5.52311ZM11.8751 6.07435L10.212 8.58075L11.4619 9.41007L13.1249 6.90367L11.8751 6.07435ZM18.125 12.807C18.125 15.8758 15.613 18.375 12.5 18.375V19.875C16.4287 19.875 19.625 16.7169 19.625 12.807H18.125ZM12.5 18.375C9.38703 18.375 6.875 15.8758 6.875 12.807H5.375C5.375 16.7169 8.57134 19.875 12.5 19.875V18.375ZM6.875 12.807C6.875 9.73823 9.38703 7.23901 12.5 7.23901V5.73901C8.57134 5.73901 5.375 8.89713 5.375 12.807H6.875ZM16.2912 8.69364C17.42 9.71373 18.125 11.179 18.125 12.807H19.625C19.625 10.7349 18.7253 8.87159 17.2969 7.58074L16.2912 8.69364Z" fill="#0578FB"/>
</svg>
