<svg width="16" height="16" viewBox="0 0 16 16" fill="none" xmlns="http://www.w3.org/2000/svg">
<path d="M8.71876 8.97714C5.18389 8.82128 4.04513 10.411 3.01509 12.3592L3.01426 12.3603C2.96814 12.4375 2.89118 12.4838 2.78338 12.4994C2.75184 12.5019 2.72019 12.4965 2.69114 12.4838C2.62555 12.4626 2.5702 12.4172 2.53608 12.3566C2.50197 12.296 2.49156 12.2246 2.50693 12.1565C2.53768 12.0319 2.55305 11.8604 2.5838 11.6422L2.58729 11.6148C2.80535 9.90236 3.30459 5.98167 8.70256 5.40809C8.71793 5.39251 8.73331 5.39251 8.73331 5.37692V3.83508C8.73331 3.7104 8.81018 3.6013 8.91779 3.53896C9.02541 3.49221 9.17915 3.47662 9.28676 3.55455C9.28676 3.55455 13.359 6.81654 13.3924 6.84194C13.4258 6.86735 13.4529 6.90029 13.4716 6.93816C13.4903 6.97604 13.5 7.0178 13.5 7.06014C13.5 7.10248 13.4903 7.14424 13.4716 7.18211C13.4529 7.21998 13.4258 7.25293 13.3924 7.27833L9.28759 10.8006C9.24902 10.8468 9.19688 10.8793 9.13879 10.8934C9.0807 10.9074 9.01971 10.9022 8.96474 10.8785C8.82637 10.8162 8.73413 10.6604 8.73413 10.5357V8.99272L8.71876 8.97714Z" stroke="#3448F0" stroke-linecap="round" stroke-linejoin="round"/>
</svg>
