<svg width="25" height="24" viewBox="0 0 25 24" fill="none" xmlns="http://www.w3.org/2000/svg">
<path d="M14.813 8.10558C15.1347 9.09362 16.0633 9.80769 17.1587 9.80769C18.5208 9.80769 19.625 8.70347 19.625 7.34135C19.625 5.97922 18.5208 4.875 17.1587 4.875C15.7965 4.875 14.6923 5.97922 14.6923 7.34135C14.6923 7.6081 14.7347 7.86496 14.813 8.10558ZM14.813 8.10558L9.9929 10.5194M9.9929 10.5194C9.57037 9.76755 8.76518 9.25962 7.84135 9.25962C6.47922 9.25962 5.375 10.3638 5.375 11.726C5.375 13.0881 6.47922 14.1923 7.84135 14.1923C8.71817 14.1923 9.48812 13.7348 9.92547 13.0454M9.9929 10.5194C10.432 11.3006 10.4057 12.2884 9.92547 13.0454M9.92547 13.0454L15.0166 15.4354M15.0166 15.4354C14.8102 15.7959 14.6923 16.2135 14.6923 16.6587C14.6923 18.0208 15.7965 19.125 17.1587 19.125C18.5208 19.125 19.625 18.0208 19.625 16.6587C19.625 15.2965 18.5208 14.1923 17.1587 14.1923C16.2417 14.1923 15.4416 14.6927 15.0166 15.4354Z" stroke="#0578FB" stroke-width="1.5"/>
</svg>
