<svg width="24" height="24" viewBox="0 0 24 24" fill="none" xmlns="http://www.w3.org/2000/svg">
<path d="M6.34511 15.4295C6.638 15.1367 6.638 14.6618 6.34511 14.3689C6.05222 14.076 5.57734 14.076 5.28445 14.3689L6.34511 15.4295ZM3.99547 15.6579C3.70257 15.9508 3.70257 16.4256 3.99547 16.7185C4.28836 17.0114 4.76323 17.0114 5.05613 16.7185L3.99547 15.6579ZM7.61311 16.6975C7.906 16.4047 7.906 15.9298 7.61311 15.6369C7.32022 15.344 6.84534 15.344 6.55245 15.6369L7.61311 16.6975ZM3.55781 18.6315C3.26492 18.9244 3.26492 19.3993 3.55781 19.6922C3.85071 19.9851 4.32558 19.9851 4.61847 19.6922L3.55781 18.6315ZM8.88111 17.9655C9.174 17.6727 9.174 17.1978 8.88111 16.9049C8.58822 16.612 8.11334 16.612 7.82045 16.9049L8.88111 17.9655ZM6.47151 18.2538C6.17862 18.5467 6.17862 19.0216 6.47151 19.3145C6.76441 19.6074 7.23928 19.6074 7.53217 19.3145L6.47151 18.2538ZM14.0313 7.57599V6.82599V7.57599ZM19.3791 3.87092L20.1061 3.68674C20.0382 3.41866 19.8283 3.2097 19.5599 3.14304L19.3791 3.87092ZM6.76203 13.7211L6.10054 13.3677C5.94487 13.659 5.99814 14.0179 6.2317 14.2515L6.76203 13.7211ZM9.53484 16.494L9.00451 17.0243C9.23819 17.258 9.59727 17.3112 9.88865 17.1553L9.53484 16.494ZM8.28282 9.46257C8.69398 9.41236 8.98658 9.03834 8.93637 8.62718C8.88616 8.21602 8.51215 7.92342 8.10099 7.97363L8.28282 9.46257ZM3 12.2883L2.37754 11.8699C2.19007 12.1488 2.21102 12.5184 2.4288 12.7743C2.64657 13.0303 3.00802 13.1101 3.31334 12.9697L3 12.2883ZM5.84221 12.8817C6.24941 12.9576 6.64104 12.689 6.71695 12.2818C6.79286 11.8746 6.52429 11.483 6.11709 11.4071L5.84221 12.8817ZM15.2826 15.1473C15.3318 14.736 15.0384 14.3627 14.6271 14.3134C14.2158 14.2641 13.8425 14.5576 13.7932 14.9689L15.2826 15.1473ZM10.9707 20.25L10.2883 19.9389C10.1491 20.2443 10.2297 20.605 10.4856 20.822C10.7416 21.0391 11.1106 21.0597 11.3891 20.8725L10.9707 20.25ZM11.8521 17.1338C11.7767 16.7265 11.3854 16.4575 10.9781 16.5329C10.5708 16.6083 10.3017 16.9996 10.3771 17.4069L11.8521 17.1338ZM5.28445 14.3689L3.99547 15.6579L5.05613 16.7185L6.34511 15.4295L5.28445 14.3689ZM6.55245 15.6369L3.55781 18.6315L4.61847 19.6922L7.61311 16.6975L6.55245 15.6369ZM7.82045 16.9049L6.47151 18.2538L7.53217 19.3145L8.88111 17.9655L7.82045 16.9049ZM14.0313 8.32599C14.2079 8.32599 14.3804 8.37835 14.5273 8.47644L15.3606 7.22924C14.9671 6.96632 14.5045 6.82599 14.0313 6.82599L14.0313 8.32599ZM14.5273 8.47644C14.6741 8.57453 14.7885 8.71395 14.856 8.87707L16.2419 8.30305C16.0608 7.86584 15.7541 7.49215 15.3606 7.22924L14.5273 8.47644ZM14.856 8.87707C14.9236 9.0402 14.9413 9.21969 14.9068 9.39286L16.378 9.68549C16.4703 9.22135 16.423 8.74026 16.2419 8.30305L14.856 8.87707ZM14.9068 9.39286C14.8724 9.56602 14.7874 9.72509 14.6625 9.84993L15.7232 10.9106C16.0578 10.576 16.2857 10.1496 16.378 9.68549L14.9068 9.39286ZM14.6625 9.84993C14.5377 9.97478 14.3786 10.0598 14.2055 10.0942L14.4981 11.5654C14.9622 11.4731 15.3886 11.2452 15.7232 10.9106L14.6625 9.84993ZM14.2055 10.0942C14.0323 10.1287 13.8528 10.111 13.6897 10.0435L13.1156 11.4293C13.5529 11.6104 14.034 11.6577 14.4981 11.5654L14.2055 10.0942ZM13.6897 10.0435C13.5266 9.97588 13.3871 9.86146 13.289 9.71466L12.0418 10.548C12.3047 10.9415 12.6784 11.2482 13.1156 11.4293L13.6897 10.0435ZM13.289 9.71466C13.1909 9.56785 13.1386 9.39526 13.1386 9.2187H11.6386C11.6386 9.69193 11.7789 10.1545 12.0418 10.548L13.289 9.71466ZM13.1386 9.2187C13.1386 8.98194 13.2326 8.75488 13.4001 8.58746L12.3394 7.5268C11.8907 7.97552 11.6386 8.58411 11.6386 9.2187H13.1386ZM13.4001 8.58746C13.5675 8.42004 13.7945 8.32599 14.0313 8.32599V6.82599C13.3967 6.82599 12.7881 7.07809 12.3394 7.5268L13.4001 8.58746ZM14.6371 5.04274L18.2073 8.61293L19.2679 7.55227L15.6977 3.98208L14.6371 5.04274ZM19.5599 3.14304C18.9631 2.99481 17.0935 2.69926 14.6006 3.90675C12.1154 5.11054 9.09212 7.76877 6.10054 13.3677L7.42353 14.0746C10.3133 8.6662 13.1339 6.2839 15.2545 5.25672C17.3676 4.23321 18.8658 4.51621 19.1983 4.5988L19.5599 3.14304ZM6.2317 14.2515L9.00451 17.0243L10.0652 15.9636L7.29236 13.1908L6.2317 14.2515ZM9.88865 17.1553C15.5056 14.1501 18.1621 11.1174 19.3594 8.62926C20.5605 6.13352 20.2535 4.26849 20.1061 3.68674L18.652 4.0551C18.7325 4.37264 19.025 5.86496 18.0078 7.97882C16.9869 10.1003 14.6074 12.9295 9.18104 15.8327L9.88865 17.1553ZM8.10099 7.97363C6.60621 8.15617 4.34855 8.93751 2.37754 11.8699L3.62246 12.7067C5.32655 10.1714 7.17565 9.59778 8.28282 9.46257L8.10099 7.97363ZM3 12.2883C3.31334 12.9697 3.31303 12.9698 3.31273 12.97C3.31264 12.97 3.31234 12.9702 3.31214 12.9702C3.31176 12.9704 3.31139 12.9706 3.31104 12.9707C3.31034 12.9711 3.3097 12.9714 3.30912 12.9716C3.30796 12.9721 3.30706 12.9725 3.30641 12.9728C3.3051 12.9734 3.30479 12.9735 3.30548 12.9732C3.30685 12.9727 3.3122 12.9704 3.32145 12.9668C3.33995 12.9596 3.37404 12.9471 3.42322 12.9317C3.52156 12.9008 3.6802 12.8585 3.89527 12.8245C4.32413 12.7568 4.98279 12.7215 5.84221 12.8817L6.11709 11.4071C5.07901 11.2136 4.24784 11.2502 3.66126 11.3429C3.36859 11.3891 3.13811 11.449 2.97425 11.5004C2.89233 11.5261 2.82705 11.5497 2.77896 11.5684C2.75492 11.5777 2.73516 11.5858 2.71975 11.5923C2.71205 11.5956 2.70544 11.5985 2.69992 11.6009C2.69716 11.6021 2.69467 11.6032 2.69246 11.6042C2.69136 11.6047 2.69032 11.6052 2.68935 11.6056C2.68887 11.6059 2.6884 11.6061 2.68795 11.6063C2.68773 11.6064 2.68741 11.6065 2.68729 11.6066C2.68697 11.6067 2.68666 11.6069 3 12.2883ZM13.7932 14.9689C13.6608 16.0745 13.0878 17.9233 10.5523 19.6275L11.3891 20.8725C14.3213 18.9016 15.1033 16.6437 15.2826 15.1473L13.7932 14.9689ZM10.9707 20.25C11.6532 20.5611 11.6533 20.5607 11.6534 20.5604C11.6535 20.5603 11.6536 20.56 11.6537 20.5598C11.6539 20.5593 11.6542 20.5589 11.6544 20.5584C11.6548 20.5574 11.6553 20.5564 11.6558 20.5553C11.6567 20.5531 11.6578 20.5506 11.659 20.5479C11.6615 20.5424 11.6643 20.5358 11.6675 20.5281C11.674 20.5127 11.682 20.493 11.6913 20.469C11.7097 20.4209 11.7331 20.3557 11.7586 20.2738C11.8096 20.11 11.8691 19.8795 11.9151 19.587C12.0072 19.0007 12.0439 18.1701 11.8521 17.1338L10.3771 17.4069C10.536 18.2651 10.5008 18.9243 10.4333 19.3542C10.3994 19.5698 10.3572 19.729 10.3264 19.8279C10.311 19.8773 10.2985 19.9117 10.2913 19.9304C10.2877 19.9397 10.2854 19.9451 10.2848 19.9466C10.2845 19.9473 10.2846 19.9471 10.2852 19.9458C10.2855 19.9451 10.2859 19.9443 10.2864 19.9431C10.2866 19.9425 10.2869 19.9419 10.2872 19.9412C10.2874 19.9409 10.2875 19.9405 10.2877 19.9401C10.2878 19.9399 10.2879 19.9396 10.288 19.9395C10.2881 19.9392 10.2883 19.9389 10.9707 20.25Z" fill="#0578FB"/>
</svg>
