<svg width="16" height="16" viewBox="0 0 16 16" fill="none" xmlns="http://www.w3.org/2000/svg">
<mask id="mask0_1_1388" style="mask-type:alpha" maskUnits="userSpaceOnUse" x="0" y="0" width="16" height="16">
<rect width="16" height="16" fill="#D9D9D9"/>
</mask>
<g mask="url(#mask0_1_1388)">
<path d="M2.80001 13.6C2.47001 13.6 2.18751 13.4825 1.95251 13.2475C1.71751 13.0125 1.60001 12.73 1.60001 12.4V5.19998C1.60001 4.86998 1.71751 4.58748 1.95251 4.35248C2.18751 4.11748 2.47001 3.99998 2.80001 3.99998H5.60001V2.79644C5.60001 2.46546 5.71765 2.18331 5.95294 1.94998C6.18823 1.71664 6.47107 1.59998 6.80147 1.59998H9.20441C9.53481 1.59998 9.81667 1.71748 10.05 1.95248C10.2833 2.18748 10.4 2.46998 10.4 2.79998V3.99998H13.2C13.53 3.99998 13.8125 4.11748 14.0475 4.35248C14.2825 4.58748 14.4 4.86998 14.4 5.19998V12.4C14.4 12.73 14.2825 13.0125 14.0475 13.2475C13.8125 13.4825 13.53 13.6 13.2 13.6H2.80001ZM2.80001 12.4H13.2V5.19998H2.80001V12.4ZM6.80001 3.99998H9.20001V2.79998H6.80001V3.99998Z" fill="#595D62"/>
</g>
</svg>
